<svg id="Capa_2" data-name="Capa 2" xmlns="http://www.w3.org/2000/svg" viewBox="0 0 344 99"><defs><style>.cls-1{fill:#00ffa7;}.cls-2{fill:#494949;}</style></defs><path class="cls-1" d="M22.9,49.59V92.53H7.5V6.84L53.68,49.59V6.66h15.4V92Z"/><path class="cls-1" d="M84.47,72.17V41h15.4l0,30.87c0,4,3.45,6.4,7.62,6.4S115.19,76,115.19,72L115.26,41h15.4V72.17c0,12.46-9,20.36-23.14,20.36S84.47,84.63,84.47,72.17Z"/><path class="cls-1" d="M139.19,66.78A25.5,25.5,0,0,1,165.05,41a26.07,26.07,0,0,1,11.57,2.64v16.8c-1.72-1.73-5.61-5-11.12-5a10.93,10.93,0,0,0-11.39,11.32c0,6.39,4.52,11.23,11.39,11.23,5.6,0,9.4-3.28,11.12-4.93v16.8a26.07,26.07,0,0,1-11.57,2.65A25.5,25.5,0,0,1,139.19,66.78Z"/><path class="cls-1" d="M192.23,23.83h15.28V92.3H192.23Z"/><path class="cls-1" d="M274.11,66.33v.09l-.18,4.29H238.48c1.36,5.29,5.34,8.58,10.67,8.58a11.24,11.24,0,0,0,9.41-4.66l13.74,3.56c-3.8,9-12.57,14.34-23.06,14.34-15,0-26.22-11-26.22-25.75S234.23,41,248.88,41C263.35,41,273.93,51.63,274.11,66.33Zm-35-5.66h19.07c-1.62-4.3-4.79-6.58-9.22-6.58A10,10,0,0,0,239.12,60.67Z"/><path class="cls-1" d="M311.38,40.79c-14.56,0-25.95,11.71-25.95,26.85,0,11.46,6.53,21,16,24.89V69.76h19.78V92.53c9.47-4,16-13.49,16-24.89C337.23,52.6,325.84,40.79,311.38,40.79Z"/><polygon class="cls-2" points="326.17 40.79 311.33 40.79 296.5 40.79 281.66 58.25 311.33 58.25 341 58.25 326.17 40.79"/></svg>