<svg id="Capa_1" data-name="Capa 1" xmlns="http://www.w3.org/2000/svg" viewBox="0 0 344 152"><defs><style>.cls-1{fill:#00ffa7;}.cls-2{fill:#494949;}.cls-3{fill:#1d1d1b;}</style></defs><path class="cls-1" d="M23.47,52.36V95H8.18V9.88L54.06,52.36V9.7h15.3V94.47Z"/><path class="cls-1" d="M84.65,74.79V43.85H99.94l0,30.67c0,4,3.43,6.36,7.56,6.36s7.62-2.31,7.62-6.28l.08-30.75h15.29V74.79c0,12.37-8.94,20.22-23,20.22S84.65,87.16,84.65,74.79Z"/><path class="cls-1" d="M139,69.43A25.34,25.34,0,0,1,164.7,43.85a25.89,25.89,0,0,1,11.5,2.63V63.17c-1.71-1.72-5.57-5-11-5a10.86,10.86,0,0,0-11.32,11.25c0,6.35,4.49,11.16,11.32,11.16,5.57,0,9.34-3.27,11-4.9V92.38A25.89,25.89,0,0,1,164.7,95,25.34,25.34,0,0,1,139,69.43Z"/><path class="cls-1" d="M191.71,26.76h15.18v68H191.71Z"/><path class="cls-1" d="M273.05,69v.09l-.18,4.26H237.66c1.34,5.26,5.3,8.53,10.6,8.53a11.19,11.19,0,0,0,9.34-4.63l13.65,3.54C267.48,89.66,258.76,95,248.35,95c-14.92,0-26-11-26-25.58S233.43,43.85,248,43.85C262.36,43.85,272.87,54.37,273.05,69Zm-34.76-5.63h19c-1.62-4.26-4.76-6.53-9.16-6.53A10,10,0,0,0,238.29,63.35Z"/><path class="cls-1" d="M310.07,43.61c-14.46,0-25.78,11.64-25.78,26.68,0,11.38,6.49,20.8,15.91,24.72V72.39h19.65V95c9.41-3.93,15.91-13.4,15.91-24.72C335.76,55.34,324.44,43.61,310.07,43.61Z"/><polygon class="cls-2" points="324.77 43.61 310.03 43.61 295.29 43.61 280.55 60.95 310.03 60.95 339.5 60.95 324.77 43.61"/><path class="cls-3" d="M23.47,135.24a10.74,10.74,0,0,1,11-10.78,11,11,0,0,1,4.41.91v6a5.69,5.69,0,0,0-4.41-2,5.91,5.91,0,1,0,4.41,9.83v6a11,11,0,0,1-4.41.9A10.74,10.74,0,0,1,23.47,135.24Z"/><path class="cls-3" d="M54.16,135.24a11,11,0,1,1,11,10.78A10.73,10.73,0,0,1,54.16,135.24Zm16.75,0a5.83,5.83,0,0,0-11.65,0,5.83,5.83,0,1,0,11.65,0Z"/><path class="cls-3" d="M91.13,125.56h5.31v1.89a7.81,7.81,0,0,1,5.55-2.31,7.54,7.54,0,0,1,7.45,7.74V146.3h-5.35V133.54a3.62,3.62,0,0,0-3.74-3.7,3.75,3.75,0,0,0-3.91,3.7V146.3H91.13Z"/><path class="cls-3" d="M122.57,142.94l3-3.67a7.43,7.43,0,0,0,5,2.39c1.65,0,2.63-.86,2.63-2,0-1.44-1.68-1.81-4.15-2.68-3.21-1.15-5.93-2.59-5.93-6.21,0-4.2,3.62-6.34,7.61-6.34a9.49,9.49,0,0,1,7.12,3l-3.12,3.17a6.34,6.34,0,0,0-4.16-2c-1.32,0-2.18.7-2.18,1.76,0,1.4,1.48,1.82,3.91,2.6,3.08,1,6.21,2.43,6.21,6.58s-3.25,6.5-7.78,6.5A11.67,11.67,0,0,1,122.57,142.94Z"/><path class="cls-3" d="M152.28,135.24a10.73,10.73,0,0,1,11-10.78,11,11,0,0,1,4.41.91v6a5.69,5.69,0,0,0-4.41-2,5.91,5.91,0,1,0,4.41,9.83v6a11,11,0,0,1-4.41.9A10.73,10.73,0,0,1,152.28,135.24Z"/><path class="cls-3" d="M186.33,118.81a3.13,3.13,0,0,1,6.26,0,3.13,3.13,0,0,1-6.26,0Zm.5,6.75h5.27V146.3h-5.27Z"/><path class="cls-3" d="M228.78,136.19H212.44a5.84,5.84,0,0,0,5.84,5.51,6,6,0,0,0,5.31-3l4.28,1.77a10.27,10.27,0,0,1-9.55,5.55c-6.58,0-11.11-4.77-11.11-10.78a10.65,10.65,0,0,1,10.95-10.78A10.32,10.32,0,0,1,228.82,135ZM213,132.11h10.17a5.1,5.1,0,0,0-4.94-3.41A5.44,5.44,0,0,0,213,132.11Z"/><path class="cls-3" d="M243.56,125.56h5.31v1.89a7.83,7.83,0,0,1,5.56-2.31,7.54,7.54,0,0,1,7.45,7.74V146.3h-5.35V133.54a3.62,3.62,0,0,0-3.75-3.7,3.77,3.77,0,0,0-3.91,3.7V146.3h-5.31Z"/><path class="cls-3" d="M280.65,129.88h-4.07v-4.32h4.07v-7.45H286v7.45h4v4.32h-4V146.3h-5.35Z"/><path class="cls-3" d="M324.66,136.19H308.32a5.84,5.84,0,0,0,5.84,5.51,6,6,0,0,0,5.31-3l4.28,1.77A10.25,10.25,0,0,1,314.2,146c-6.58,0-11.11-4.77-11.11-10.78a10.65,10.65,0,0,1,11-10.78A10.31,10.31,0,0,1,324.7,135Zm-15.8-4.08H319a5.09,5.09,0,0,0-4.94-3.41A5.42,5.42,0,0,0,308.86,132.11Z"/></svg>